<svg xml:space="preserve" fill-rule="evenodd" clip-rule="evenodd" viewBox="0 0 603 147" xmlns="http://www.w3.org/2000/svg" >
  <path fill="url(#a)" d="M3884.774 489.675c6.577-3.624 14.425-6.354 30.837-3.038 8.912 1.801 17.7 5.717 24.244 9.734 8.323 5.11 17.043 13.053 22.286 25.814 7.088 17.25 5.378 33.433.412 48.24-4.645 13.851-11.886 22.788-21.206 30.749-4.249 3.63-9.161 7.097-15.592 9.966a13.5 13.5 0 0 1-1.148 8.27c-3.264 6.703-11.466 9.532-18.168 6.268a13.54 13.54 0 0 1-6.683-7.258 13.7 13.7 0 0 1-.863-3.493c-4.307.32-10.885.361-19.268-1.757-9.222-2.329-15.85-6.495-19.733-9.205-2.299-1.604-4.938-3.986-5.348-4.355-5.378-4.855-13.714-14.147-17.529-30.383-.443-1.887-1.637-7.85-1.563-14.535.24-21.964 11.056-36.016 15.327-41.038.027-.032.584-1.062 1.461-2.478q.26-.42.506-.803a20.35 20.35 0 0 1 1.133-11.849c4.306-10.404 16.411-15.422 26.816-11.116a20.2 20.2 0 0 1 4.079 2.267m37.816 114.824c3.145-1.088 8.844-3.378 14.526-7.347 6.978-4.875 11.147-10.293 11.951-11.337 2.866-3.724 4.582-6.842 6.352-11.274 5.187-12.987 5.321-31.283-3.491-47.135-.171-.307-3.771-7.718-12.895-16.811-.192-.191-2.729-2.85-6.948-6.213-9.356-7.458-19.14-10.144-20.85-10.602-12.493-3.351-20.748-1.293-22.654-.548 4.708 5.686 6.227 13.75 3.231 20.991-1.19 2.875-3.075 6.004-5.254 7.975-.138 1.994 3.232 18.73 3.232 18.73l-3.808 15.232c-1.158-1.812-12.392-27.322-13.519-29.295 0 0-4.227-.184-7.467-1.525-4.952-2.049-8.684-5.866-10.771-10.424q-.24.24-.486.494c-.206.212-.475.489-1.93 3.163-9.359 17.196-8.715 36.507-1.848 51.891 3.873 8.676 10.694 17.706 17.381 23.488.065.057 6.6 6.287 16.718 10.815 6.23 2.789 12.286 4.036 15.389 4.542q.292-.913.722-1.799a13.47 13.47 0 0 1 5.377-5.767l-7.361-12.492s5.776 1.524 8.909-3.104l3.891 13.38s3.311-.252 7.352 1.716a13.4 13.4 0 0 1 4.251 3.256m-8.092 4.63c-2.376-1.158-5.283-.154-6.441 2.222a4.8 4.8 0 0 0-.134 3.868 4.78 4.78 0 0 0 2.356 2.573c2.377 1.157 5.284.154 6.442-2.222 1.157-2.376.154-5.284-2.223-6.441m-44.857-95.011a8.24 8.24 0 0 0 4.016.58c2.975-.312 5.718-2.184 6.933-5.119 1.758-4.248-.291-9.191-4.539-10.949-4.249-1.759-9.191.291-10.95 4.539s.291 9.191 4.54 10.949" transform="rotate(255 2026.412 2005.671)scale(1.1273)"/>
  <g fill="#22b638">
    <path d="M61.976 63.816a6.084 6.084 0 0 1-12.166 0v-18.95c0-13.734 11.299-25.033 25.033-25.033s25.033 11.299 25.033 25.033v18.95a6.084 6.084 0 0 1-12.166 0v-18.95c0-7.06-5.808-12.867-12.867-12.867s-12.867 5.808-12.867 12.867z"/>
    <path d="M101.923 105.108V69.9h-54.16v22.693c-3.496-1.98-8.594-3.203-12.166-3.33V67.785c0-5.548 4.505-10.053 10.053-10.053h58.386c5.547 0 10.053 4.505 10.053 10.053v39.435c0 5.548-4.506 10.053-10.053 10.053l-38.967-.127-.421-2.81 10.479-9.214c5.098 0 15.743-.015 26.796-.015"/>
  </g>
  <path fill="#424242" fill-rule="nonzero" d="M586.904 45.56v-7.002h3.201c.47 0 .9.1 1.29.31s.7.49.93.86c.231.36.351.79.351 1.27 0 .45-.11.85-.32 1.21-.21.35-.49.64-.84.86l.56.951c.03.05.07.08.11.11.05.03.11.04.18.04h.62v1.39h-.98c-.3 0-.58-.07-.82-.22-.25-.14-.44-.33-.58-.56l-.75-1.33h-1.271v2.11zm1.68-3.501h1.331q.3 0 .54-.12c.17-.08.3-.21.39-.36q.15-.24.15-.57c0-.22-.05-.4-.15-.56a.96.96 0 0 0-.39-.361c-.17-.09-.34-.13-.54-.13h-1.33z"/>
  <circle cx="3866.431" cy="1926.141" r="8.923" fill="none" stroke="#424242" stroke-width="3.02" transform="translate(-2600.037 -1546.895)scale(.825)"/>
  <path fill="url(#b)" fill-rule="nonzero" d="m192.152 286.875 10.477-18.235c-14.825 1.466-19.232-2.861-22.486-5.249q-4.882-3.58-7.58-9.044-2.697-5.463-2.697-12.042v-34.198h13.344v34.106q0 4.462 2.058 7.903t5.475 5.359q3.418 1.918 7.439 1.918 4.068 0 7.498-1.93t5.498-5.358q2.07-3.43 2.07-7.892v-34.106h13.297v34.198c0 4.402-1.167 16.155-8.466 26.335-2.344 3.269-10.244 18.235-10.244 18.235z" transform="matrix(1.2869 0 0 1.34362 284.092 -241.218)"/>
  <path fill="url(#c)" fill-rule="nonzero" d="M.276.012A.22.22 0 0 1 .069-.12a.31.31 0 0 1 .003-.27.25.25 0 0 1 .093-.097.3.3 0 0 1 .145-.035q.084 0 .142.036a.23.23 0 0 1 .09.096q.03.06.031.134V0H.458v-.095H.456a.19.19 0 0 1-.18.107m.031-.098a.14.14 0 0 0 .079-.022.15.15 0 0 0 .052-.062.2.2 0 0 0 .018-.086.2.2 0 0 0-.018-.086.138.138 0 0 0-.13-.082.15.15 0 0 0-.082.022.16.16 0 0 0-.052.061.2.2 0 0 0-.018.086q0 .047.018.086a.14.14 0 0 0 .133.083" transform="matrix(156.18397 0 0 156.18408 236.29 118.052)"/>
  <path fill="url(#d)" fill-rule="nonzero" d="M.306.012a.3.3 0 0 1-.11-.019.24.24 0 0 1-.137-.144.3.3 0 0 1-.019-.112q0-.078.032-.136a.23.23 0 0 1 .087-.09.25.25 0 0 1 .196-.022.2.2 0 0 1 .1.078h.001V-.73h.115v.469a.3.3 0 0 1-.034.146.23.23 0 0 1-.093.094.3.3 0 0 1-.138.033m0-.098a.15.15 0 0 0 .078-.021.15.15 0 0 0 .052-.06.2.2 0 0 0 .019-.088.2.2 0 0 0-.019-.088.14.14 0 0 0-.131-.081.14.14 0 0 0-.077.022.16.16 0 0 0-.053.06.207.207 0 0 0 0 .175.141.141 0 0 0 .131.081" transform="matrix(156.18397 0 0 156.18408 320.91 118.052)"/>
  <path fill="url(#e)" fill-rule="nonzero" d="M.306.012a.3.3 0 0 1-.11-.019.24.24 0 0 1-.137-.144.3.3 0 0 1-.019-.112q0-.078.032-.136a.23.23 0 0 1 .087-.09.25.25 0 0 1 .196-.022.2.2 0 0 1 .1.078h.001V-.73h.115v.469a.3.3 0 0 1-.034.146.23.23 0 0 1-.093.094.3.3 0 0 1-.138.033m0-.098a.15.15 0 0 0 .078-.021.15.15 0 0 0 .052-.06.2.2 0 0 0 .019-.088.2.2 0 0 0-.019-.088.14.14 0 0 0-.131-.081.14.14 0 0 0-.077.022.16.16 0 0 0-.053.06.207.207 0 0 0 0 .175.141.141 0 0 0 .131.081" transform="matrix(156.18397 0 0 156.18408 404.625 118.052)"/>
  <path fill="url(#f)" d="M2668.105 700.4a28.1 28.1 0 0 0-1.983 10.366c0 15.502 12.585 28.088 28.088 28.088s28.087-12.586 28.087-28.088a28.1 28.1 0 0 0-6.667-18.169l-7.996 6.781c2.699 3.181 3.938 7.224 4.18 11.388.383 6.614-5.209 13.754-14.544 15.871-13.371 1.944-20.664-6.155-20.664-15.871 0-2.225.421-4.43 1.242-6.497z" transform="rotate(96.998 2577.242 -1120.504)scale(1.5048)"/>
  <defs>
    <linearGradient id="a" x1="0" x2="1" y1="0" y2="0" gradientTransform="rotate(146.792 1910.587 846.07)scale(195.27838)" gradientUnits="userSpaceOnUse">
      <stop offset="0" stop-color="#23d93b"/>
      <stop offset=".33" stop-color="#77c4f7"/>
      <stop offset="1" stop-color="#0059d1"/>
    </linearGradient>
    <linearGradient id="b" x1="0" x2="1" y1="0" y2="0" gradientTransform="matrix(0 43.91141 -45.84671 0 89.29 181.762)" gradientUnits="userSpaceOnUse">
      <stop offset="0" stop-color="#858585"/>
      <stop offset="1" stop-color="#2f2f2f"/>
    </linearGradient>
    <linearGradient id="c" x1="0" x2="1" y1="0" y2="0" gradientTransform="rotate(90 .89 .153)scale(.37776)" gradientUnits="userSpaceOnUse">
      <stop offset="0" stop-color="#858585"/>
      <stop offset="1" stop-color="#2f2f2f"/>
    </linearGradient>
    <linearGradient id="d" x1="0" x2="1" y1="0" y2="0" gradientTransform="rotate(90 .618 -.118)scale(.37776)" gradientUnits="userSpaceOnUse">
      <stop offset="0" stop-color="#858585"/>
      <stop offset="1" stop-color="#2f2f2f"/>
    </linearGradient>
    <linearGradient id="e" x1="0" x2="1" y1="0" y2="0" gradientTransform="rotate(90 .35 -.386)scale(.37776)" gradientUnits="userSpaceOnUse">
      <stop offset="0" stop-color="#858585"/>
      <stop offset="1" stop-color="#2f2f2f"/>
    </linearGradient>
    <linearGradient id="f" x1="0" x2="1" y1="0" y2="0" gradientTransform="rotate(-6.998 6230.954 -21206.536)scale(39.20786)" gradientUnits="userSpaceOnUse">
      <stop offset="0" stop-color="#858585"/>
      <stop offset="1" stop-color="#2f2f2f"/>
    </linearGradient>
  </defs>
</svg>